<?xml version="1.0" encoding="utf-8"?>
<!-- Generator: Adobe Illustrator 17.1.0, SVG Export Plug-In . SVG Version: 6.00 Build 0)  -->
<!DOCTYPE svg PUBLIC "-//W3C//DTD SVG 1.1//EN" "http://www.w3.org/Graphics/SVG/1.1/DTD/svg11.dtd">
<svg version="1.1" id="Layer_1" xmlns="http://www.w3.org/2000/svg" xmlns:xlink="http://www.w3.org/1999/xlink" x="0px" y="0px"
	 viewBox="0 0 100 100" enable-background="new 0 0 100 100" xml:space="preserve">
<g>
	<path fill="#010101" d="M75.009,15.85c-1.3-2.041-2.807-3.667-3.528-4.398c0.149-0.847,0.168-1.929,0.168-1.943V7.74
		C71.649,2.713,60.493,0,50,0C39.505,0,28.352,2.713,28.352,7.74v1.769c0,0.015,0.019,1.107,0.168,1.955
		c-0.679,0.71-2.095,2.276-3.512,4.362c-2.169,3.194-2.089,5.598-2.085,5.655v64.724c0,1.767,1.18,3.519,3.416,5.082
		C28.981,96.192,39.266,100,50,100c10.735,0,21.02-3.808,23.661-8.714c2.235-1.563,3.417-3.315,3.417-5.082V21.482
		C77.077,21.385,77.059,19.075,75.009,15.85z M50,16.437c-9.729,0-17.833-2.192-19.456-5.068c-0.002-0.002-0.002-0.005-0.003-0.008
		c-0.073-0.21-0.152-0.999-0.179-1.532c2.702,2.82,10.248,4.748,19.638,4.748c9.393,0,16.938-1.928,19.639-4.749
		c-0.025,0.531-0.103,1.314-0.162,1.491c-0.003,0.008-0.003,0.016-0.005,0.024C67.884,14.231,59.759,16.437,50,16.437z
		 M32.378,10.257c0.108-2.757,8.456-5.254,17.621-5.254c9.167,0,17.513,2.496,17.624,5.252c-3.265,1.992-9.936,3.362-17.623,3.362
		C42.313,13.618,35.644,12.249,32.378,10.257z M50,1.999c11.247,0,19.651,3.031,19.651,5.741v0.393
		c-0.195,0.573-0.648,1.124-1.318,1.641C67.469,6.334,58.42,4.228,50,4.228S32.53,6.334,31.67,9.775
		C31,9.259,30.545,8.71,30.352,8.135V7.74C30.35,5.03,38.755,1.999,50,1.999z M26.663,16.948c1.616-2.378,3.263-4.07,3.596-4.403
		c2.614,2.877,10.235,4.852,19.741,4.852c9.509,0,17.133-1.976,19.743-4.854c0.312,0.299,2.106,2.065,3.581,4.38
		c1.707,2.686,1.755,4.544,1.755,4.557v0.692c-1.402,4.059-11.672,8.231-25.099,8.231c-13.402,0-23.654-4.17-25.056-8.229v-0.729
		C24.922,21.428,24.898,19.547,26.663,16.948z M50,98.001c-9.743,0-17.736-3.049-20.883-6.313c5.099,2.516,12.791,4.03,20.883,4.03
		c8.124,0,15.802-1.509,20.865-4.012C67.707,94.963,59.724,98.001,50,98.001z M72.327,89.777c-0.002,0-0.002,0.002-0.003,0.004
		c-4.731,3.073-13.229,4.976-22.326,4.976c-8.903,0-17.601-1.95-22.329-4.983c-1.771-1.193-2.747-2.461-2.747-3.57V24.115
		c3.297,4.139,13.436,7.247,25.056,7.247c11.641,0,21.799-3.11,25.098-7.249v62.091C75.078,87.313,74.102,88.581,72.327,89.777z"/>
	<g>
		<path fill="#010101" d="M63.305,9.338c-0.35-1.167-5.41-1.436-7.718-1.937c-1.211-0.262-2.316-0.601-3.415-0.916
			C51.446,6.276,50.639,6,49.646,5.962c-1.706-0.065-3.598,0.495-4.555,0.934s-1.993,1.226-1.358,1.784
			c0.371,0.324,1.35,0.521,2.12,0.709c1.165,0.285,2.396,0.566,3.443,0.904c2,0.643,4.098,2.273,7.41,2.079
			c1.557-0.092,2.921-0.529,4.422-1.219C62.628,10.462,63.469,9.886,63.305,9.338z M51.483,8.592
			c-0.662,0.305-1.864,0.375-2.683,0.159c-0.82-0.218-0.947-0.641-0.285-0.945c0.663-0.304,1.866-0.376,2.685-0.158
			C52.02,7.865,52.147,8.288,51.483,8.592z M59.815,10.803c-1.305,0.6-3.672,0.739-5.283,0.31c-1.612-0.428-1.862-1.26-0.56-1.86
			c1.307-0.599,3.669-0.738,5.281-0.311C60.868,9.371,61.119,10.205,59.815,10.803z"/>
	</g>
</g>
</svg>
