<?xml version="1.0" encoding="utf-8"?>
<!-- Generator: Adobe Illustrator 17.1.0, SVG Export Plug-In . SVG Version: 6.00 Build 0)  -->
<!DOCTYPE svg PUBLIC "-//W3C//DTD SVG 1.1//EN" "http://www.w3.org/Graphics/SVG/1.1/DTD/svg11.dtd">
<svg version="1.1" id="Layer_1" xmlns="http://www.w3.org/2000/svg" xmlns:xlink="http://www.w3.org/1999/xlink" x="0px" y="0px"
	 viewBox="0 0 100 100" enable-background="new 0 0 100 100" xml:space="preserve">
<path d="M62.42,48.55c0-12.6-5.86-8.35-5.86-17.52c0-5.31-1.96-11.97-2.52-13.28c-0.38-0.89-0.05-1.37-0.05-1.37
	c0.18-0.18,0.47-0.19,0.3-0.92c-0.16-0.73-0.55-1.84-0.55-1.84s-0.13-0.46-0.01-0.59s0.12-0.61-0.36-0.77
	c-0.16-0.05-1.91-0.08-3.7-0.08c-1.79,0-3.54,0.03-3.7,0.08c-0.48,0.16-0.48,0.64-0.36,0.77s-0.01,0.59-0.01,0.59
	s-0.39,1.11-0.55,1.84c-0.17,0.73,0.12,0.74,0.3,0.92c0,0,0.33,0.48-0.05,1.37c-0.56,1.31-2.52,7.97-2.52,13.28
	c0,9.17-5.86,4.92-5.86,17.52l0.52,33.09c0,0-0.39,2.81,1.04,5.17c0.93,1.55,4.7,3.37,11.13,3.37h0.12c6.43,0,10.2-1.82,11.13-3.37
	c1.43-2.36,1.04-5.17,1.04-5.17L62.42,48.55z M60.91,81.78c0.01,0.03,0.33,2.48-0.9,4.52c-0.67,1.11-4.06,2.88-10.28,2.88h-0.12
	c-6.22,0-9.61-1.77-10.28-2.88c-1.23-2.04-0.91-4.49-0.9-4.52l0.01-0.07v-0.08l-0.52-33.09c0-6.4,1.54-8.11,3.02-9.76
	c1.39-1.54,2.84-3.15,2.84-7.75c0-5.02,1.85-11.51,2.44-12.89c0.57-1.32,0.06-2.17-0.04-2.33l-0.06-0.08l-0.08-0.08
	c-0.01,0-0.01,0-0.01-0.01c0.15-0.66,0.51-1.68,0.51-1.69l0.01-0.03l0.01-0.02c0.06-0.21,0.1-0.44,0.1-0.69
	c0.59-0.02,1.64-0.03,3.01-0.03s2.42,0.01,3.01,0.03c0,0.25,0.04,0.48,0.1,0.69l0.01,0.02l0.01,0.03c0,0.01,0.36,1.03,0.51,1.69
	c0,0.01,0,0.01-0.01,0.01l-0.08,0.08l-0.06,0.08c-0.1,0.16-0.61,1.01-0.04,2.33c0.59,1.38,2.44,7.87,2.44,12.89
	c0,4.6,1.45,6.21,2.84,7.75c1.48,1.65,3.02,3.36,3.02,9.76L60.9,81.63v0.08L60.91,81.78z"/>
<g>
	<path d="M49.797,9.822c2.319,0,3.111,0.086,3.381,0.143c0,0,0.001,0.001,0.001,0.001c0.023,0.049,0.05,0.121,0.081,0.21
		c-0.158-0.071-0.347-0.123-0.569-0.127c-0.295,0-0.535,0.104-0.716,0.211c-0.186-0.117-0.435-0.23-0.753-0.233
		c-0.303,0-0.548,0.106-0.734,0.217c-0.183-0.115-0.427-0.227-0.733-0.227c-0.32,0-0.576,0.123-0.762,0.241
		c-0.192-0.114-0.451-0.23-0.78-0.23c0,0,0,0,0,0c-0.322,0.004-0.578,0.126-0.768,0.246c-0.187-0.111-0.441-0.224-0.764-0.224
		c0,0,0,0,0,0c-0.268,0.004-0.492,0.085-0.671,0.182c0.028-0.098,0.053-0.176,0.074-0.232C46.342,9.932,47.17,9.822,49.797,9.822"/>
	<path d="M49.797,8.822c-4.289,0-4.239,0.281-4.484,0.51c-0.244,0.229-0.527,1.746-0.528,1.746c0.915,0,0.696,0.345,1.136,0.345
		c0.006,0,0.011,0,0.017,0c0.222-0.004,0.475-0.368,0.756-0.372c0.002,0,0.003,0,0.005,0c0.24,0,0.499,0.347,0.76,0.347
		c0.001,0,0.003,0,0.004,0c0.252-0.003,0.505-0.366,0.76-0.369c0.001,0,0.002,0,0.003,0c0.258,0,0.518,0.352,0.764,0.352
		c0.001,0,0.001,0,0.002,0c0.272-0.002,0.529-0.363,0.762-0.363c0.226,0,0.473,0.362,0.731,0.363c0,0,0.001,0,0.001,0
		c0.238,0,0.487-0.353,0.735-0.353c0.001,0,0.001,0,0.002,0c0.246,0.003,0.489,0.367,0.73,0.37c0.001,0,0.003,0,0.004,0
		c0.252,0,0.503-0.348,0.733-0.348c0.001,0,0.003,0,0.004,0c0.271,0.004,0.515,0.369,0.727,0.373c0.006,0,0.011,0,0.017,0
		c0.428,0,0.375-0.345,1.108-0.345c0,0-0.348-1.517-0.592-1.746C53.711,9.102,54.086,8.822,49.797,8.822L49.797,8.822z"/>
</g>
<g>
	<path d="M49.67,84.951c-5.943,0-12.259-1.47-12.259-4.193c0-0.276,0.224-0.5,0.5-0.5s0.5,0.224,0.5,0.5
		c0,1.508,4.815,3.193,11.259,3.193c6.444,0,11.259-1.686,11.259-3.193c0-0.276,0.224-0.5,0.5-0.5s0.5,0.224,0.5,0.5
		C61.929,83.481,55.612,84.951,49.67,84.951z"/>
</g>
<g>
	<path d="M49.67,53.604c-6.181,0-12.75-1.523-12.75-4.347c0-0.276,0.224-0.5,0.5-0.5s0.5,0.224,0.5,0.5
		c0,1.583,4.826,3.347,11.75,3.347c6.925,0,11.75-1.764,11.75-3.347c0-0.276,0.224-0.5,0.5-0.5s0.5,0.224,0.5,0.5
		C62.42,52.08,55.851,53.604,49.67,53.604z"/>
</g>
</svg>
