<svg xmlns="http://www.w3.org/2000/svg" xmlns:xlink="http://www.w3.org/1999/xlink" version="1.1" x="0px" y="0px" width="100px" height="100px" viewBox="0 0 100 100" enable-background="new 0 0 100 100" xml:space="preserve">
<g id="Layer_2_1_" display="none">
	<path display="inline" d="M59.803,30.799H39.658v-2.047h20.145V30.799z M52.238,64.294v4.401c0,3.48,2.83,6.312,6.31,6.312h2.138   v3.411H38.775v-3.411h2.137c3.48,0,6.311-2.831,6.311-6.312v-4.401c0-2.209-1.196-4.252-3.055-5.387   c-5.454-1.719-9.494-6.44-9.494-11.84c0-3.77,0.956-6.476,1.881-9.092c0.63-1.783,1.225-3.469,1.508-5.465   c0.327-2.3,0.087-7.331-0.903-9.305l-1.239-2.47h27.821l-1.492,2.563c-1.183,2.032-1.208,6.698-0.853,9.211   c0.281,1.982,0.873,3.637,1.497,5.389c0.931,2.606,1.892,5.3,1.892,9.168c0,5.864-4.396,10.223-9.524,11.846   C53.398,60.053,52.238,62.077,52.238,64.294z M48.635,56.195h2.242c4.965,0,10.498-3.749,10.498-9.128   c0-3.277-0.822-5.582-1.693-8.021c-0.654-1.835-1.332-3.732-1.662-6.058c-0.226-1.596-0.479-5.595,0.307-8.842H41.03   c0.678,3.044,0.679,6.947,0.409,8.843c-0.33,2.333-1.011,4.259-1.668,6.122c-0.868,2.454-1.687,4.771-1.687,7.956   C38.084,52.016,42.916,56.195,48.635,56.195z"/>
	<path display="inline" d="M58.547,79.468c-3.479,0-6.31-2.831-6.31-6.312v-15.07c4.683-3.665,6.417-17.666,6.417-29.909V16.274   h-17.85v11.903c0,12.243,1.735,26.243,6.417,29.909v15.07c0,3.48-2.831,6.312-6.311,6.312h-2.137v3.411h21.91v-3.411H58.547z    M55.244,19.685v6.615H44.215v-6.615H55.244z M44.216,28.346h11.026c-0.022,19.144-3.947,27.255-5.512,27.255   C48.165,55.601,44.24,47.489,44.216,28.346z"/>
	<path display="inline" d="M37.02,79.704h25.42l5.062-60.256H31.958L37.02,79.704z M40.156,76.293L39.8,72.062   c1.381,0.888,3.018,1.409,4.778,1.409h10.27c1.774,0,3.425-0.529,4.812-1.431l-0.357,4.253H40.156z M39.283,65.902l-2.895-34.46   H63.07l-2.878,34.265c-0.513,2.48-2.714,4.353-5.345,4.353h-10.27C42.017,70.06,39.869,68.284,39.283,65.902z M63.792,22.859   l-0.55,6.537H36.216l-0.549-6.537H63.792z"/>
	<path display="inline" d="M68.174,20.585H31.94l0.823,9.802c-1.098,1.436-1.695,3.184-1.695,5c0,2.311,0.947,4.466,2.622,6.025   l2.429,37.153h27.876l2.493-37.912c1.232-1.48,1.903-3.327,1.903-5.267c0-1.463-0.383-2.881-1.112-4.137L68.174,20.585z    M64.465,23.996l-0.518,6.166h-27.78l-0.519-6.166H64.465z M39.329,75.156l-0.277-4.594c1.412,0.955,3.122,1.518,4.963,1.518   h12.083c1.843,0,3.554-0.563,4.966-1.52l-0.279,4.596H39.329z M61.451,63.498c0,2.852-2.401,5.171-5.353,5.171H44.015   c-2.952,0-5.353-2.319-5.353-5.171l-1.633-23.07c-0.04-0.477-0.278-0.916-0.657-1.208c-1.203-0.929-1.894-2.325-1.894-3.833   c0-1.171,0.43-2.293,1.205-3.179h28.143c0.686,0.881,1.154,2.196,1.154,3.179c0,1.262-0.486,2.457-1.369,3.368   c-0.273,0.283-0.441,0.652-0.475,1.044L61.451,63.498z"/>
	<path display="inline" d="M60.01,24.123L58.066,4.576H41.447l-1.941,19.528c-7.37,1.13-7.372,10.693-7.372,13.967l4.917,56.504   h25.413l4.854-56.358l0.006-0.146C67.324,29.575,64.859,24.902,60.01,24.123z M54.979,7.987l1.592,16.006H42.944l1.591-16.006   H54.979z M40.999,27.403h17.499c3.442,0,5.127,2.787,5.379,8.963H35.581C35.824,30.112,37.482,27.403,40.999,27.403z    M59.334,91.166H40.178L35.7,39.777h28.061L59.334,91.166z"/>
	<path display="inline" d="M59.13,64.016l2.458-28.878H37.871l2.458,28.878H59.13z M43.461,60.604l-0.367-4.313   c1.407,0.939,3.096,1.49,4.911,1.49h3.448c1.816,0,3.504-0.551,4.912-1.49l-0.367,4.313H43.461z M57.875,38.548l-0.964,10.365   c0,3.009-2.448,5.458-5.458,5.458h-3.448c-3.01,0-5.458-2.449-5.458-5.458l-0.963-10.365H57.875z"/>
	<path display="inline" d="M64.385,50.785c1.07-3.139,2.285-6.696,2.285-11.536V19.448H32.79v19.801   c0,4.84,1.214,8.397,2.284,11.536c0.93,2.725,1.809,5.3,1.809,8.436v20.483h25.693V59.221   C62.576,56.085,63.455,53.51,64.385,50.785z M63.258,22.859v6.536H36.201v-6.536H63.258z M36.201,39.249v-7.807h27.057v7.807   c0,4.274-1.068,7.405-2.102,10.434c-0.979,2.87-1.99,5.836-1.99,9.538v5.457C59.131,67.651,57,70.06,54.383,70.06h-9.306   c-2.609,0-4.733-2.392-4.783-5.353v-5.486c0-3.701-1.012-6.668-1.991-9.538C37.269,46.654,36.201,43.523,36.201,39.249z    M40.293,76.293v-4.504c1.348,1.053,2.997,1.682,4.783,1.682h9.306c1.785,0,3.436-0.629,4.783-1.682v4.504H40.293z"/>
	<path display="inline" d="M63.508,14.155H35.951v70.842h27.557V14.155z M60.098,69.788c-0.036,3.028-2.205,5.479-4.871,5.479   H44.233c-2.657,0-4.821-2.436-4.871-5.449V31.249h20.736V69.788z M60.098,17.566v11.636H39.362V17.566H60.098z M39.362,81.586   V76.95c1.369,1.081,3.05,1.729,4.871,1.729h10.994c1.821,0,3.502-0.647,4.871-1.729v4.637H39.362z"/>
	<path display="inline" d="M35.951,19.954v59.245h27.557V19.954H35.951z M60.098,23.364V63.99c-0.036,3.028-2.205,5.479-4.871,5.479   H44.233c-2.657,0-4.821-2.436-4.871-5.449V23.364H60.098z M39.362,75.787v-4.635c1.369,1.082,3.05,1.729,4.871,1.729h10.994   c1.821,0,3.502-0.646,4.871-1.729v4.636H39.362z"/>
	<path display="inline" d="M36.89,77.181H62.57l1.964-55.209H34.925L36.89,77.181z M40.168,73.77   c-0.036-0.91-0.085-2.178-0.145-3.703c1.178,0.789,2.559,1.253,4.041,1.253h11.33c1.481,0,2.863-0.464,4.041-1.253   c-0.06,1.524-0.109,2.792-0.145,3.703H40.168z M61.088,25.382c-0.168,6.101-0.904,25.387-1.398,38.155   c-0.279,2.463-2.097,4.371-4.295,4.371h-11.33c-2.195,0-4.009-1.9-4.294-4.356c-0.495-12.767-1.23-32.067-1.399-38.169H61.088z"/>
	<path display="inline" d="M36.931,67.688h25.596l2.006-36.224H34.925L36.931,67.688z M40.128,64.277   c-0.059-0.909-0.139-2.17-0.234-3.658c1.182,0.762,2.56,1.207,4.036,1.207h11.6c1.477,0,2.854-0.445,4.036-1.207   c-0.095,1.488-0.176,2.749-0.234,3.658H40.128z M61.074,34.875c-0.152,3.671-0.625,11.594-1.055,18.512h-0.03   c0,2.773-2.001,5.029-4.46,5.029h-11.6c-2.46,0-4.462-2.256-4.462-5.029h-0.029c-0.429-6.917-0.902-14.84-1.054-18.512H61.074z"/>
	<path display="inline" d="M65.898,24.362H33.562l6.917,42.199h3.778c-0.156,2.683-2.38,4.817-5.101,4.817v3.411h21.147v-3.411   c-2.721,0-4.945-2.135-5.102-4.817h3.777L65.898,24.362z M57.434,54.796c0,0.316-1.498,1.597-4.656,1.597h-6.097   c-3.158,0-4.655-1.28-4.655-1.597h-0.019l-3.076-18.765h21.599l-3.077,18.765H57.434z M61.883,27.773l-1.02,6.212H38.595   l-1.018-6.212H61.883z M53.484,71.379h-7.511c1.017-1.351,1.634-3.015,1.697-4.817h4.117   C51.851,68.364,52.469,70.028,53.484,71.379z M43.376,63.15l-0.647-3.949c1.155,0.385,2.496,0.603,3.952,0.603h6.097   c1.456,0,2.798-0.218,3.953-0.603l-0.648,3.949H43.376z"/>
	<path display="inline" d="M32.174,12.372c0,15.574,2.425,26.913,4.564,36.917c1.353,6.323,2.479,11.141,2.853,17.292   c0.423,6.956-0.566,12.982-3.195,19.567c-0.21,0.526-0.146,1.121,0.172,1.589c0.317,0.469,0.846,0.749,1.412,0.749h23.499   c0.566,0,1.096-0.28,1.412-0.749c0.318-0.468,0.382-1.062,0.172-1.589c-2.629-6.585-3.65-13.122-3.195-19.567   c0.322-4.552,1.501-10.969,2.854-17.292c2.139-10.004,4.564-21.342,4.564-36.917v-1.705H32.174V12.372z M40.438,85.074   c0.694-1.995,1.234-3.977,1.653-5.965h15.277c0.419,1.988,0.96,3.97,1.653,5.965H40.438z M59.385,48.575   c-1.324,6.189-2.574,12.036-2.921,17.799l0,0c-0.194,3.212-0.093,6.292,0.31,9.324H42.687c0.401-3.032,0.503-6.112,0.309-9.324l0,0   c-0.347-5.763-1.598-11.609-2.921-17.799c-1.468-6.863-3.068-14.373-3.904-23.446h27.12C62.453,34.203,60.854,41.712,59.385,48.575   z M63.864,14.078c-0.038,3.175-0.184,6.162-0.402,9.005H35.998c-0.219-2.843-0.365-5.83-0.402-9.005H63.864z"/>
	<path display="inline" d="M29.323,23.021l17.899,25.205v18.182c0,3.48-2.831,6.312-6.311,6.312h-4.865v3.411h27.368V72.72h-4.867   c-3.479,0-6.31-2.831-6.31-6.312V48.226l17.899-25.205H29.323z M51.812,42.934c-0.521,0.071-1.049,0.121-1.584,0.121H49.23   c-0.535,0-1.062-0.049-1.584-0.121L35.929,26.433h27.603L51.812,42.934"/>
	<path display="inline" d="M66.732,41.359c0-4.994-3.556-23.611-3.707-24.401l-0.266-1.384H36.699l-0.265,1.384   c-0.152,0.791-3.708,19.407-3.708,24.401c0,7.594,6.521,14.062,14.495,14.67v17.827c0,3.48-2.831,6.312-6.311,6.312h-5.547v3.411   h28.732v-3.411h-5.549c-3.479,0-6.31-2.831-6.31-6.312V56.029C60.212,55.421,66.732,48.953,66.732,41.359z M39.523,18.984h20.413   c0.725,3.874,2.734,14.875,3.259,20.303H36.265C36.79,33.859,38.8,22.857,39.523,18.984z M36.137,41.359c0-0.008,0-0.017,0-0.025   h27.184c0,0.008,0.001,0.017,0.001,0.025c0,6.026-5.753,11.311-12.311,11.311h-2.563C41.89,52.67,36.137,47.385,36.137,41.359z"/>
	<path display="inline" d="M64.687,41.359c0-4.973-3.077-23.57-3.209-24.359l-0.236-1.426H38.217L37.981,17   c-0.131,0.789-3.208,19.386-3.208,24.359c0,7.479,5.57,13.871,12.449,14.644v17.854c0,3.479-2.831,6.311-6.311,6.311h-4.183v3.41   h26.003v-3.41h-4.185c-3.479,0-6.31-2.831-6.31-6.311V56.003C59.116,55.23,64.687,48.839,64.687,41.359z M58.346,18.984   c0.52,3.207,1.776,11.145,2.463,16.893H38.65c0.687-5.748,1.944-13.686,2.462-16.893H58.346z M38.184,41.359   c0-0.792,0.09-1.993,0.238-3.436h22.615c0.148,1.443,0.238,2.644,0.238,3.436c0,6.025-4.877,11.311-10.436,11.311h-2.22   C43.061,52.67,38.184,47.385,38.184,41.359z"/>
	<path display="inline" d="M41.628,9.357c0,1.739,1.415,3.154,3.154,3.154s3.154-1.415,3.154-3.154s-1.415-3.154-3.154-3.154   S41.628,7.618,41.628,9.357z M66.605,35.462c-2.131,0-4.087,0.745-5.634,1.981v-6.682h2.382l-5.99-10.556h-4.636l-4.056-7.145   h-7.78l-4.056,7.145h-4.635L26.21,30.762h2.381v48.981l-4.781,13.206h41.942l-4.781-13.206V65.854   c1.547,1.235,3.503,1.98,5.634,1.98c4.986,0,9.043-4.058,9.043-9.044V44.507C75.648,39.52,71.592,35.462,66.605,35.462z    M42.878,16.471h3.808l2.12,3.734h-8.047L42.878,16.471z M34.187,23.616h21.19l2.119,3.735H32.067L34.187,23.616z M57.561,30.762   v41.678H32.002V30.762H57.561z M32.002,75.851h25.558v2.486H32.002V75.851z M28.672,89.538l2.821-7.79H58.07l2.82,7.79H28.672z    M72.238,58.791c0,3.105-2.527,5.633-5.633,5.633c-3.107,0-5.634-2.527-5.634-5.633V44.507c0-3.106,2.526-5.634,5.634-5.634   c3.105,0,5.633,2.527,5.633,5.634V58.791z"/>
	<path display="inline" d="M26.883,22.378v54.396h34.427V62.18h2.222c4.987,0,9.044-4.057,9.044-9.044V40.898   c0-4.987-4.057-9.044-9.044-9.044h-2.222v-9.476H26.883z M47.561,34.657V66.98h-6.928V34.657H47.561z M40.633,32.61v-6.821h6.928   v6.821H40.633z M50.971,34.657h6.929v26.769c0,3.062-2.187,5.555-4.874,5.555h-2.055V34.657z M57.899,32.61h-6.929v-6.821h6.929   V32.61z M37.222,25.789v6.821h-6.928v-6.821H37.222z M30.294,34.657h6.928V66.98h-2.052c-2.688,0-4.875-2.492-4.875-5.555V34.657z    M30.294,73.363v-4.704c1.37,1.084,3.052,1.731,4.875,1.731h17.856c1.822,0,3.504-0.647,4.874-1.73v4.703H30.294z M63.532,35.264   c3.106,0,5.633,2.527,5.633,5.634v12.238c0,3.106-2.526,5.633-5.633,5.633h-2.222V35.264H63.532z"/>
</g>
<g id="Layer_1">
	<g id="Your_Icon" display="none">
		<path display="inline" d="M60.369,31.223H40.225v-2.047h20.144V31.223L60.369,31.223z M52.805,64.718v4.401    c0,3.48,2.832,6.312,6.312,6.312h2.138v3.41H39.342v-3.41h2.137c3.48,0,6.311-2.832,6.311-6.312v-4.401    c0-2.209-1.195-4.252-3.055-5.387c-5.454-1.72-9.495-6.44-9.495-11.84c0-3.77,0.956-6.476,1.881-9.092    c0.63-1.783,1.225-3.469,1.508-5.465c0.327-2.3,0.087-7.331-0.903-9.305l-1.239-2.47h27.822l-1.492,2.563    c-1.184,2.032-1.209,6.698-0.854,9.211c0.281,1.982,0.873,3.637,1.497,5.389c0.931,2.605,1.892,5.3,1.892,9.168    c0,5.863-4.396,10.223-9.523,11.846C53.966,60.477,52.805,62.501,52.805,64.718z M49.202,56.619h2.241    c4.966,0,10.498-3.749,10.498-9.128c0-3.277-0.821-5.582-1.692-8.021c-0.655-1.835-1.333-3.732-1.661-6.058    c-0.227-1.596-0.48-5.595,0.307-8.842H41.597c0.678,3.044,0.68,6.947,0.409,8.843c-0.33,2.333-1.011,4.259-1.668,6.122    c-0.868,2.454-1.687,4.771-1.687,7.956C38.651,52.439,43.483,56.619,49.202,56.619z"/>
		<path display="inline" d="M59.113,79.893c-3.479,0-6.309-2.832-6.309-6.312V58.51c4.682-3.665,6.416-17.666,6.416-29.909V16.698    h-17.85v11.903c0,12.243,1.734,26.243,6.417,29.909v15.07c0,3.48-2.831,6.312-6.311,6.312H39.34v3.41h21.91v-3.41H59.113z     M55.811,20.108v6.615H44.782v-6.615H55.811z M44.784,28.77h11.026c-0.022,19.144-3.947,27.255-5.513,27.255    C48.732,56.023,44.808,47.913,44.784,28.77z"/>
		<path display="inline" d="M37.587,80.128h25.42l5.062-60.256H32.526L37.587,80.128z M40.724,76.717l-0.356-4.23    c1.381,0.888,3.018,1.408,4.778,1.408h10.269c1.774,0,3.426-0.528,4.813-1.431l-0.356,4.253H40.724z M39.851,66.326l-2.895-34.46    h26.683L60.76,66.131c-0.512,2.48-2.714,4.354-5.346,4.354H45.146C42.585,70.482,40.436,68.708,39.851,66.326z M64.359,23.283    l-0.551,6.537H36.784l-0.549-6.537H64.359z"/>
		<path display="inline" d="M68.741,21.009H32.507l0.823,9.802c-1.098,1.436-1.695,3.184-1.695,5c0,2.311,0.947,4.466,2.622,6.025    l2.429,37.153h27.876l2.492-37.912c1.232-1.48,1.903-3.327,1.903-5.267c0-1.463-0.383-2.881-1.112-4.137L68.741,21.009z     M65.032,24.42l-0.519,6.166h-27.78l-0.519-6.166H65.032z M39.896,75.58l-0.277-4.594c1.412,0.955,3.122,1.518,4.964,1.518h12.083    c1.844,0,3.553-0.562,4.966-1.52l-0.278,4.596H39.896z M62.02,63.922c0,2.852-2.401,5.171-5.354,5.171H44.583    c-2.952,0-5.354-2.319-5.354-5.171l-1.633-23.07c-0.04-0.477-0.278-0.916-0.657-1.208c-1.203-0.929-1.894-2.325-1.894-3.833    c0-1.171,0.43-2.293,1.205-3.179h28.143c0.687,0.881,1.154,2.196,1.154,3.179c0,1.262-0.486,2.457-1.369,3.368    c-0.273,0.283-0.441,0.652-0.475,1.044L62.02,63.922z"/>
		<path display="inline" d="M60.577,24.546L58.634,5H42.015l-1.941,19.528c-7.37,1.13-7.372,10.693-7.372,13.967L37.619,95h25.413    l4.854-56.358l0.006-0.146C67.893,29.999,65.427,25.326,60.577,24.546z M55.545,8.411l1.592,16.006H43.512l1.591-16.006H55.545z     M41.566,27.827h17.499c3.442,0,5.127,2.787,5.379,8.963H36.148C36.391,30.536,38.05,27.827,41.566,27.827z M59.9,91.59H40.745    l-4.478-51.389h28.061L59.9,91.59z"/>
		<path display="inline" d="M59.697,64.439l2.457-28.878H38.438l2.458,28.878H59.697z M44.028,61.027l-0.367-4.312    c1.408,0.939,3.096,1.49,4.912,1.49h3.446c1.815,0,3.504-0.551,4.912-1.49l-0.367,4.312H44.028z M58.441,38.972l-0.963,10.365    c0,3.009-2.449,5.458-5.459,5.458h-3.446c-3.01,0-5.459-2.449-5.459-5.458l-0.963-10.365H58.441z"/>
		<path display="inline" d="M64.952,51.209c1.069-3.139,2.284-6.696,2.284-11.536V19.872H33.357v19.801    c0,4.84,1.214,8.397,2.284,11.536c0.93,2.725,1.809,5.3,1.809,8.436v20.483h25.692V59.645    C63.145,56.509,64.021,53.934,64.952,51.209z M63.825,23.283v6.536H36.768v-6.536H63.825z M36.768,39.673v-7.807h27.057v7.807    c0,4.274-1.068,7.405-2.103,10.435c-0.979,2.869-1.99,5.835-1.99,9.537v5.457c-0.035,2.975-2.166,5.383-4.782,5.383h-9.307    c-2.608,0-4.732-2.393-4.783-5.354v-5.486c0-3.701-1.011-6.668-1.991-9.537C37.836,47.078,36.768,43.947,36.768,39.673z     M40.86,76.717v-4.504c1.349,1.053,2.998,1.682,4.783,1.682h9.307c1.786,0,3.435-0.629,4.782-1.682v4.504H40.86z"/>
		<path display="inline" d="M64.075,14.579H36.519v70.842h27.557L64.075,14.579L64.075,14.579z M60.664,70.212    c-0.035,3.028-2.205,5.479-4.87,5.479H44.8c-2.656,0-4.82-2.437-4.871-5.449V31.673h20.735V70.212z M60.664,17.99v11.636H39.929    V17.99H60.664z M39.929,82.01v-4.636c1.369,1.081,3.05,1.729,4.871,1.729h10.994c1.821,0,3.502-0.647,4.87-1.729v4.637    L39.929,82.01L39.929,82.01z"/>
		<path display="inline" d="M36.519,20.377v59.245h27.557V20.377H36.519z M60.664,23.788v40.626    c-0.035,3.027-2.205,5.479-4.87,5.479H44.8c-2.656,0-4.82-2.436-4.871-5.449V23.788H60.664z M39.929,76.211v-4.635    c1.369,1.082,3.05,1.729,4.871,1.729h10.994c1.821,0,3.502-0.646,4.87-1.729v4.636L39.929,76.211L39.929,76.211z"/>
		<path display="inline" d="M37.457,77.604h25.682l1.963-55.208H35.492L37.457,77.604z M40.735,74.193    c-0.035-0.91-0.085-2.178-0.144-3.703c1.177,0.789,2.559,1.253,4.041,1.253h11.33c1.481,0,2.863-0.464,4.041-1.253    c-0.06,1.523-0.108,2.792-0.146,3.703H40.735z M61.654,25.806c-0.168,6.101-0.902,25.387-1.396,38.155    c-0.279,2.463-2.098,4.371-4.296,4.371h-11.33c-2.195,0-4.01-1.9-4.294-4.355c-0.495-12.768-1.23-32.067-1.399-38.169    L61.654,25.806L61.654,25.806z"/>
		<path display="inline" d="M37.499,68.111h25.597l2.006-36.224H35.493L37.499,68.111z M40.695,64.701    c-0.059-0.909-0.139-2.17-0.234-3.658c1.182,0.762,2.559,1.207,4.036,1.207h11.601c1.477,0,2.854-0.445,4.035-1.207    c-0.096,1.488-0.176,2.749-0.234,3.658H40.695z M61.643,35.299c-0.152,3.671-0.625,11.594-1.055,18.512h-0.031    c0,2.773-2,5.029-4.459,5.029H44.497c-2.46,0-4.462-2.256-4.462-5.029h-0.029c-0.429-6.917-0.902-14.839-1.054-18.512H61.643z"/>
		<path display="inline" d="M57.062,83.449l9.319-76.625H34.211l9.319,76.625c0.104,0.855,0.83,1.499,1.692,1.499h0.283    c-0.155,2.682-2.38,4.817-5.101,4.817v3.409h19.782v-3.409c-2.721,0-4.944-2.137-5.102-4.817h0.283    C56.232,84.948,56.959,84.305,57.062,83.449z M46.733,81.537l-0.54-4.438c1.13,0.604,2.416,0.946,3.783,0.946h0.64    c1.366,0,2.653-0.344,3.782-0.944l-0.539,4.436H46.733z M55.127,71.117c-0.51,2.019-2.336,3.52-4.511,3.52h-0.64    c-2.181,0-4.01-1.509-4.513-3.535l-6.19-50.897h22.045L55.127,71.117z M62.532,10.234l-0.964,7.923H39.025l-0.963-7.923H62.532z     M53.37,89.766h-6.147c1.017-1.352,1.634-3.016,1.696-4.816h2.755C51.736,86.75,52.354,88.414,53.37,89.766z"/>
		<path display="inline" d="M66.466,24.786H34.129l6.917,42.198h3.777c-0.155,2.684-2.379,4.817-5.1,4.817v3.411h21.146v-3.411    c-2.721,0-4.944-2.135-5.102-4.817h3.778L66.466,24.786z M58.001,55.22c0,0.316-1.497,1.597-4.655,1.597h-6.098    c-3.158,0-4.655-1.279-4.655-1.597h-0.02l-3.075-18.765h21.6L58.02,55.22H58.001z M62.45,28.197l-1.021,6.212H39.162l-1.018-6.212    H62.45z M54.053,71.803H46.54c1.018-1.351,1.635-3.015,1.697-4.816h4.117C52.418,68.788,53.035,70.452,54.053,71.803z     M43.943,63.574l-0.647-3.949c1.154,0.385,2.496,0.604,3.952,0.604h6.098c1.455,0,2.797-0.219,3.951-0.604l-0.646,3.949H43.943z"/>
		<path display="inline" d="M32.742,12.796c0,15.574,2.425,26.913,4.564,36.917c1.353,6.323,2.479,11.141,2.853,17.292    c0.423,6.956-0.566,12.981-3.195,19.567c-0.21,0.525-0.146,1.121,0.172,1.589c0.317,0.469,0.846,0.749,1.412,0.749h23.499    c0.566,0,1.096-0.28,1.412-0.749c0.318-0.468,0.382-1.062,0.172-1.589c-2.628-6.586-3.648-13.122-3.193-19.567    c0.319-4.552,1.5-10.969,2.853-17.292c2.14-10.004,4.563-21.342,4.563-36.917v-1.705H32.742V12.796z M41.005,85.498    c0.693-1.995,1.234-3.977,1.653-5.965h15.277c0.42,1.988,0.959,3.97,1.653,5.965H41.005z M59.952,48.999    c-1.323,6.188-2.574,12.036-2.921,17.799l0,0c-0.193,3.212-0.094,6.292,0.309,9.324H43.254c0.401-3.032,0.503-6.112,0.31-9.324    l0,0c-0.348-5.763-1.598-11.608-2.922-17.799c-1.468-6.863-3.068-14.373-3.904-23.446h27.12    C63.021,34.626,61.421,42.136,59.952,48.999z M64.432,14.501c-0.037,3.175-0.184,6.162-0.402,9.005H36.565    c-0.219-2.843-0.365-5.83-0.402-9.005H64.432z"/>
		<path display="inline" d="M68.493,76.502c-6.511-1.559-12.132-2.904-12.132-12.083c0-8.907,1.322-15.538,2.723-22.559    c1.711-8.581,3.65-18.306,3.65-34.113V6.042H20.595v1.706c0,15.766,2.138,25.408,4.023,33.915    c1.559,7.032,3.032,13.673,3.032,22.756c0,6.556-0.927,10.267-1.746,13.54c-1.02,4.079-1.9,7.604-0.626,14.6l0.255,1.399h19.552    v-3.544c8.517,2.343,15.696,3.559,21.369,3.529c12.295-0.064,13.44-5.59,13.44-5.59C80.911,79.475,74.314,77.895,68.493,76.502z     M59.316,9.453c-0.045,4.737-0.271,8.896-0.611,12.644h-34.01c-0.378-3.74-0.632-7.897-0.681-12.644H59.316z M76.54,87.652    c-0.406,0.582-2.489,2.88-10.086,2.88c-5.829,0-13.433-1.349-22.599-4.011l-2.181-0.633v4.657H28.402    c-0.792-5.348-0.077-8.21,0.811-11.762c0.866-3.464,1.847-7.392,1.847-14.366c0-9.456-1.512-16.275-3.112-23.495    c-1.083-4.885-2.249-10.16-3.03-16.781h33.587c-0.711,6.725-1.776,12.086-2.767,17.05c-1.436,7.19-2.788,13.982-2.788,23.226    c0,11.868,8.177,13.826,14.749,15.398C73.812,81.281,77.025,82.311,76.54,87.652z"/>
		<path display="inline" d="M67.3,41.783c0-4.994-3.556-23.611-3.707-24.401l-0.266-1.384h-26.06l-0.265,1.384    c-0.152,0.791-3.708,19.407-3.708,24.401c0,7.594,6.521,14.062,14.495,14.67V74.28c0,3.479-2.831,6.312-6.311,6.312h-5.547v3.411    h28.732v-3.411h-5.55c-3.479,0-6.309-2.831-6.309-6.312V56.453C60.779,55.845,67.3,49.377,67.3,41.783z M40.09,19.408h20.414    c0.725,3.874,2.732,14.875,3.258,20.303H36.833C37.357,34.283,39.367,23.281,40.09,19.408z M36.705,41.783    c0-0.008,0-0.017,0-0.025h27.184c0,0.008,0.002,0.017,0.002,0.025c0,6.026-5.754,11.311-12.312,11.311h-2.563    C42.458,53.094,36.705,47.809,36.705,41.783z"/>
		<path display="inline" d="M65.254,41.783c0-4.973-3.077-23.57-3.209-24.359l-0.236-1.426H38.785l-0.236,1.426    c-0.131,0.789-3.208,19.386-3.208,24.359c0,7.479,5.571,13.871,12.449,14.644v17.854c0,3.479-2.831,6.311-6.311,6.311h-4.183v3.41    h26.003v-3.41h-4.186c-3.479,0-6.309-2.831-6.309-6.311V56.427C59.684,55.654,65.254,49.263,65.254,41.783z M58.913,19.408    c0.519,3.207,1.776,11.145,2.463,16.893H39.218c0.687-5.748,1.943-13.686,2.462-16.893H58.913z M38.751,41.783    c0-0.792,0.09-1.993,0.238-3.436h22.615c0.148,1.443,0.238,2.644,0.238,3.436c0,6.025-4.876,11.311-10.436,11.311h-2.221    C43.628,53.094,38.751,47.809,38.751,41.783z"/>
		<path display="inline" d="M58.497,47.649c6.916-2.285,11.835-8.01,11.835-14.7c0-1.784-0.719-5.073-0.727-5.106l-0.293-1.34    l-37.987,0.002l-0.327,1.285c-0.202,0.797-0.736,3.59-0.736,5.159c0,6.69,4.919,12.416,11.834,14.7c0,0,5.748,1.586,5.748,5.772    v10.914c0,3.17-2.578,5.75-5.748,5.75h-1.988v3.41h20.376v-3.41h-1.987c-3.171,0-5.749-2.58-5.749-5.75V53.422    C52.748,49.15,58.497,47.649,58.497,47.649z M33.673,32.949c0-0.729,0.186-2.016,0.368-3.033l32.5-0.002    c0.189,1.052,0.38,2.317,0.38,3.035c0,9.848-12.134,12.352-15.089,12.352h-3.071C46.089,45.301,33.673,42.968,33.673,32.949z"/>
		<path display="inline" d="M57.936,64.081c0-4.423,2.684-6.044,7.06-8.323c4.453-2.32,9.995-5.207,9.995-13.603v-1.364    c0-5.642-4.59-10.232-10.232-10.232c-2.621,0-5.009,1-6.82,2.627V30.66H25.604v38.781h32.332V64.081L57.936,64.081z M64.757,33.97    c3.763,0,6.822,3.061,6.822,6.821v1.364c0,6.327-3.781,8.296-8.16,10.577c-1.877,0.978-3.862,2.018-5.483,3.475V40.791    C57.936,37.03,60.996,33.97,64.757,33.97z M54.525,66.03h-25.51V34.071h25.51V66.03z"/>
		<path display="inline" d="M55.803,61.078c8.006-1.561,14-7.676,14-14.967c0-1.747-0.697-4.938-0.705-4.97    c-0.148-0.679-3.479-14.558-3.621-15.149l-0.313-1.307H35.428l-0.312,1.31c-1.187,4.979-3.467,14.54-3.608,15.094    c-0.197,0.776-0.715,3.495-0.715,5.022c0,7.288,5.989,13.403,13.991,14.965c1.818,0.967,3.063,2.879,3.063,5.078    c0,3.171-2.579,5.75-5.75,5.75H40.11v3.41h20.376v-3.41h-1.987c-3.17,0-5.749-2.579-5.749-5.75    C52.748,63.958,53.986,62.046,55.803,61.078z M62.475,28.095c0.787,3.285,1.854,7.741,2.561,10.691H35.569    c0.792-3.304,1.987-8.32,2.552-10.691H62.475z M34.202,46.111c0-1.088,0.429-3.468,0.61-4.18c0.027-0.106,0.123-0.503,0.267-1.098    h30.444c0.137,0.577,0.225,0.95,0.244,1.041c0.203,0.927,0.625,3.182,0.625,4.237c0,6.586-6.553,11.946-14.604,11.946h-2.981    C40.753,58.057,34.202,52.697,34.202,46.111z"/>
	</g>
	<g id="Layer_6" display="none">
		<path display="inline" d="M42.195,9.781c0,1.739,1.415,3.154,3.153,3.154c1.739,0,3.154-1.415,3.154-3.154    c0-1.739-1.415-3.154-3.154-3.154C43.61,6.627,42.195,8.042,42.195,9.781z M67.173,35.886c-2.131,0-4.087,0.745-5.634,1.981    v-6.682h2.382L57.93,20.629h-4.635l-4.056-7.145h-7.78l-4.056,7.145h-4.635l-5.991,10.556h2.381v48.981l-4.781,13.206H66.32    l-4.781-13.206V66.277c1.547,1.236,3.503,1.98,5.634,1.98c4.986,0,9.043-4.058,9.043-9.044V44.931    C76.216,39.943,72.159,35.886,67.173,35.886z M43.445,16.895h3.808l2.119,3.734h-8.047L43.445,16.895z M34.754,24.04h21.189    l2.121,3.735H32.634L34.754,24.04z M58.129,31.186v41.678H32.57V31.186H58.129z M32.57,76.273h25.559v2.486H32.57V76.273z     M29.24,89.962l2.821-7.79h26.578l2.819,7.79H29.24z M72.807,59.215c0,3.105-2.527,5.633-5.634,5.633s-5.634-2.527-5.634-5.633    V44.931c0-3.106,2.525-5.634,5.634-5.634c3.104,0,5.634,2.527,5.634,5.634V59.215z"/>
	</g>
	<g id="Layer_5" display="none">
		<path display="inline" d="M29.89,23.445L47.789,48.65v18.182c0,3.48-2.831,6.312-6.311,6.312h-4.865v3.41H63.98v-3.41h-4.867    c-3.479,0-6.309-2.832-6.309-6.312V48.65l17.898-25.205H29.89z M52.38,43.357c-0.522,0.071-1.049,0.121-1.584,0.121h-0.998    c-0.535,0-1.062-0.049-1.584-0.121L36.496,26.856H64.1L52.38,43.357"/>
	</g>
	<g id="Layer_4" display="none">
		<path display="inline" d="M34.961,67.475l-1.724,8.617h34.117l-1.725-8.617l3.699-33.792h1.535L72,23.908H28.594l1.136,9.773    h1.535L34.961,67.475z M37.398,72.682l0.69-3.453h24.415l0.69,3.453H37.398z M62.381,65.816h-24.17l-3.515-32.135h31.203    L62.381,65.816z M68.17,27.319l-0.343,2.952h-35.06l-0.343-2.952H68.17z"/>
	</g>
	<g id="Layer_3" display="none">
		<path display="inline" d="M70.221,41.601V19.346H30.373V41.6c0,6.491,4.652,12.073,11.267,14.452l-0.02,0.05    c2.346,0.853,3.92,3.092,3.92,5.573v1.109c-1.066,1.155-1.723,2.692-1.723,4.385c0,1.687,0.651,3.22,1.711,4.372    c-0.119,3.163-2.724,5.701-5.915,5.701h-4.508v3.41h30.383v-3.41H60.98c-3.191,0-5.795-2.538-5.914-5.701    c1.059-1.152,1.711-2.688,1.711-4.372c0-1.692-0.656-3.229-1.723-4.385v-1.109c0-2.471,1.565-4.707,3.895-5.565l-0.018-0.049    C65.557,53.686,70.221,48.099,70.221,41.601z M33.784,22.757h33.026v6.596H33.784V22.757z M46.823,77.243    c0.895-1.088,1.543-2.386,1.875-3.802c0.512,0.131,1.047,0.209,1.6,0.209c0.554,0,1.087-0.078,1.601-0.209    c0.332,1.416,0.978,2.713,1.873,3.802H46.823z M50.296,70.863c-2.009,0-3.637-1.629-3.637-3.639s1.628-3.638,3.637-3.638    c2.011,0,3.64,1.628,3.64,3.638S52.307,70.863,50.296,70.863z M47.822,57.258c0.314,0.014,4.637,0.014,4.952,0    c-0.592,1.098-0.973,2.312-1.088,3.585c-0.447-0.099-0.912-0.153-1.389-0.153c-0.477,0-0.941,0.056-1.389,0.153    C48.794,59.568,48.415,58.354,47.822,57.258z M51.823,53.868H48.77c-8.264,0-14.987-5.503-14.987-12.268V31.399h33.027V41.6    C66.811,48.365,60.086,53.868,51.823,53.868z"/>
	</g>
	<path d="M56.495,83.025L65.815,6.4H33.644l9.319,76.625c0.104,0.855,0.831,1.499,1.692,1.499h0.283   c-0.156,2.682-2.38,4.817-5.101,4.817v3.41H59.62v-3.41c-2.721,0-4.944-2.136-5.101-4.817h0.283   C55.664,84.524,56.391,83.881,56.495,83.025z M46.166,81.113l-0.54-4.437c1.129,0.603,2.416,0.946,3.783,0.946h0.64   c1.366,0,2.653-0.344,3.782-0.945l-0.54,4.436H46.166z M54.559,70.693c-0.509,2.019-2.335,3.52-4.51,3.52h-0.64   c-2.18,0-4.01-1.509-4.513-3.535L38.707,19.78h22.045L54.559,70.693z M61.965,9.811l-0.964,7.923H38.458l-0.963-7.923H61.965z    M52.803,89.342h-6.147c1.017-1.352,1.634-3.016,1.697-4.817h2.753C51.168,86.326,51.786,87.99,52.803,89.342z"/>
</g>
</svg>